<mxfile host="app.diagrams.net" modified="2022-08-09T05:18:18.938Z" agent="5.0 (Windows NT 10.0; Win64; x64) AppleWebKit/537.36 (KHTML, like Gecko) Chrome/104.0.5112.81 Safari/537.36 Edg/104.0.1293.47" etag="3-auohnjHkf8YaZq2qYa" version="20.2.3" type="github" pages="2">
  <diagram id="Z3hT_XJmzOSQXdM0zRNu" name="Page-1">
    <mxGraphModel dx="1865" dy="547" grid="1" gridSize="10" guides="1" tooltips="1" connect="1" arrows="1" fold="1" page="1" pageScale="1" pageWidth="827" pageHeight="1169" math="0" shadow="0">
      <root>
        <mxCell id="0" />
        <mxCell id="1" parent="0" />
        <mxCell id="7_Br2H_ahPFbPy7F2Dwa-4" value="" style="rounded=0;html=1;jettySize=auto;orthogonalLoop=1;fontSize=11;endArrow=block;endFill=0;endSize=8;strokeWidth=1;shadow=0;labelBackgroundColor=none;edgeStyle=orthogonalEdgeStyle;" parent="1" source="7_Br2H_ahPFbPy7F2Dwa-5" target="7_Br2H_ahPFbPy7F2Dwa-8" edge="1">
          <mxGeometry relative="1" as="geometry" />
        </mxCell>
        <mxCell id="7_Br2H_ahPFbPy7F2Dwa-63" value="servelt验证账号密码与权限" style="edgeLabel;html=1;align=center;verticalAlign=middle;resizable=0;points=[];" parent="7_Br2H_ahPFbPy7F2Dwa-4" vertex="1" connectable="0">
          <mxGeometry x="-0.0229" y="9" relative="1" as="geometry">
            <mxPoint as="offset" />
          </mxGeometry>
        </mxCell>
        <mxCell id="7_Br2H_ahPFbPy7F2Dwa-15" style="edgeStyle=orthogonalEdgeStyle;rounded=0;orthogonalLoop=1;jettySize=auto;html=1;exitX=0.62;exitY=-0.075;exitDx=0;exitDy=0;entryX=1;entryY=0.5;entryDx=0;entryDy=0;exitPerimeter=0;" parent="1" source="7_Br2H_ahPFbPy7F2Dwa-9" target="7_Br2H_ahPFbPy7F2Dwa-5" edge="1">
          <mxGeometry relative="1" as="geometry">
            <Array as="points">
              <mxPoint x="488" y="70" />
            </Array>
          </mxGeometry>
        </mxCell>
        <mxCell id="7_Br2H_ahPFbPy7F2Dwa-5" value="登录" style="rounded=1;whiteSpace=wrap;html=1;fontSize=12;glass=0;strokeWidth=1;shadow=0;" parent="1" vertex="1">
          <mxGeometry x="230" y="50" width="120" height="40" as="geometry" />
        </mxCell>
        <mxCell id="7_Br2H_ahPFbPy7F2Dwa-6" value="Yes" style="rounded=0;html=1;jettySize=auto;orthogonalLoop=1;fontSize=11;endArrow=block;endFill=0;endSize=8;strokeWidth=1;shadow=0;labelBackgroundColor=none;edgeStyle=orthogonalEdgeStyle;" parent="1" source="7_Br2H_ahPFbPy7F2Dwa-8" edge="1">
          <mxGeometry y="20" relative="1" as="geometry">
            <mxPoint as="offset" />
            <mxPoint x="290" y="260" as="targetPoint" />
          </mxGeometry>
        </mxCell>
        <mxCell id="7_Br2H_ahPFbPy7F2Dwa-7" value="No" style="edgeStyle=orthogonalEdgeStyle;rounded=0;html=1;jettySize=auto;orthogonalLoop=1;fontSize=11;endArrow=block;endFill=0;endSize=8;strokeWidth=1;shadow=0;labelBackgroundColor=none;" parent="1" source="7_Br2H_ahPFbPy7F2Dwa-8" target="7_Br2H_ahPFbPy7F2Dwa-9" edge="1">
          <mxGeometry y="10" relative="1" as="geometry">
            <mxPoint as="offset" />
          </mxGeometry>
        </mxCell>
        <mxCell id="7_Br2H_ahPFbPy7F2Dwa-8" value="验证是否成功" style="rhombus;whiteSpace=wrap;html=1;shadow=0;fontFamily=Helvetica;fontSize=12;align=center;strokeWidth=1;spacing=6;spacingTop=-4;" parent="1" vertex="1">
          <mxGeometry x="240" y="160" width="100" height="80" as="geometry" />
        </mxCell>
        <mxCell id="7_Br2H_ahPFbPy7F2Dwa-9" value="返回登录页面" style="rounded=1;whiteSpace=wrap;html=1;fontSize=12;glass=0;strokeWidth=1;shadow=0;" parent="1" vertex="1">
          <mxGeometry x="414" y="180" width="120" height="40" as="geometry" />
        </mxCell>
        <mxCell id="7_Br2H_ahPFbPy7F2Dwa-13" value="进入欢迎界面" style="rounded=1;whiteSpace=wrap;html=1;fontSize=12;glass=0;strokeWidth=1;shadow=0;" parent="1" vertex="1">
          <mxGeometry x="230" y="270" width="120" height="40" as="geometry" />
        </mxCell>
        <mxCell id="7_Br2H_ahPFbPy7F2Dwa-64" value="" style="rounded=0;html=1;jettySize=auto;orthogonalLoop=1;fontSize=11;endArrow=block;endFill=0;endSize=8;strokeWidth=1;shadow=0;labelBackgroundColor=none;edgeStyle=orthogonalEdgeStyle;entryX=0.5;entryY=0;entryDx=0;entryDy=0;" parent="1" source="7_Br2H_ahPFbPy7F2Dwa-67" target="7_Br2H_ahPFbPy7F2Dwa-83" edge="1">
          <mxGeometry relative="1" as="geometry">
            <mxPoint x="240" y="545" as="targetPoint" />
          </mxGeometry>
        </mxCell>
        <mxCell id="7_Br2H_ahPFbPy7F2Dwa-67" value="点击账单管理系统" style="rounded=1;whiteSpace=wrap;html=1;fontSize=12;glass=0;strokeWidth=1;shadow=0;" parent="1" vertex="1">
          <mxGeometry x="180" y="410" width="120" height="40" as="geometry" />
        </mxCell>
        <mxCell id="7_Br2H_ahPFbPy7F2Dwa-89" style="edgeStyle=none;rounded=0;orthogonalLoop=1;jettySize=auto;html=1;exitX=0.5;exitY=1;exitDx=0;exitDy=0;" parent="1" source="7_Br2H_ahPFbPy7F2Dwa-72" target="7_Br2H_ahPFbPy7F2Dwa-88" edge="1">
          <mxGeometry relative="1" as="geometry" />
        </mxCell>
        <mxCell id="7_Br2H_ahPFbPy7F2Dwa-72" value="模糊查询商品名称与是否付款" style="rounded=1;whiteSpace=wrap;html=1;fontSize=12;glass=0;strokeWidth=1;shadow=0;" parent="1" vertex="1">
          <mxGeometry x="160" y="600" width="160" height="60" as="geometry" />
        </mxCell>
        <mxCell id="7_Br2H_ahPFbPy7F2Dwa-86" style="edgeStyle=none;rounded=0;orthogonalLoop=1;jettySize=auto;html=1;exitX=0.5;exitY=1;exitDx=0;exitDy=0;" parent="1" source="7_Br2H_ahPFbPy7F2Dwa-83" target="7_Br2H_ahPFbPy7F2Dwa-72" edge="1">
          <mxGeometry relative="1" as="geometry" />
        </mxCell>
        <mxCell id="7_Br2H_ahPFbPy7F2Dwa-91" value="" style="edgeStyle=none;rounded=0;orthogonalLoop=1;jettySize=auto;html=1;" parent="1" source="7_Br2H_ahPFbPy7F2Dwa-83" target="7_Br2H_ahPFbPy7F2Dwa-90" edge="1">
          <mxGeometry relative="1" as="geometry" />
        </mxCell>
        <mxCell id="7_Br2H_ahPFbPy7F2Dwa-119" value="" style="edgeStyle=none;rounded=0;orthogonalLoop=1;jettySize=auto;html=1;" parent="1" source="7_Br2H_ahPFbPy7F2Dwa-83" target="7_Br2H_ahPFbPy7F2Dwa-118" edge="1">
          <mxGeometry relative="1" as="geometry" />
        </mxCell>
        <mxCell id="7_Br2H_ahPFbPy7F2Dwa-83" value="显示账单列表" style="rounded=0;whiteSpace=wrap;html=1;" parent="1" vertex="1">
          <mxGeometry x="180" y="500" width="120" height="60" as="geometry" />
        </mxCell>
        <mxCell id="7_Br2H_ahPFbPy7F2Dwa-88" value="显示账单查询结果列表" style="rounded=0;whiteSpace=wrap;html=1;" parent="1" vertex="1">
          <mxGeometry x="175" y="700" width="130" height="60" as="geometry" />
        </mxCell>
        <mxCell id="7_Br2H_ahPFbPy7F2Dwa-93" value="" style="edgeStyle=none;rounded=0;orthogonalLoop=1;jettySize=auto;html=1;" parent="1" source="7_Br2H_ahPFbPy7F2Dwa-90" target="7_Br2H_ahPFbPy7F2Dwa-92" edge="1">
          <mxGeometry relative="1" as="geometry" />
        </mxCell>
        <mxCell id="7_Br2H_ahPFbPy7F2Dwa-90" value="点击账单编号" style="whiteSpace=wrap;html=1;rounded=0;" parent="1" vertex="1">
          <mxGeometry x="450" y="500" width="120" height="60" as="geometry" />
        </mxCell>
        <mxCell id="7_Br2H_ahPFbPy7F2Dwa-97" value="" style="edgeStyle=none;rounded=0;orthogonalLoop=1;jettySize=auto;html=1;" parent="1" source="7_Br2H_ahPFbPy7F2Dwa-92" target="7_Br2H_ahPFbPy7F2Dwa-96" edge="1">
          <mxGeometry relative="1" as="geometry" />
        </mxCell>
        <mxCell id="7_Br2H_ahPFbPy7F2Dwa-99" value="" style="edgeStyle=none;rounded=0;orthogonalLoop=1;jettySize=auto;html=1;" parent="1" source="7_Br2H_ahPFbPy7F2Dwa-92" target="7_Br2H_ahPFbPy7F2Dwa-98" edge="1">
          <mxGeometry relative="1" as="geometry" />
        </mxCell>
        <mxCell id="7_Br2H_ahPFbPy7F2Dwa-92" value="进入账单编辑界面" style="rounded=0;whiteSpace=wrap;html=1;" parent="1" vertex="1">
          <mxGeometry x="450" y="590" width="120" height="60" as="geometry" />
        </mxCell>
        <mxCell id="7_Br2H_ahPFbPy7F2Dwa-101" value="" style="edgeStyle=none;rounded=0;orthogonalLoop=1;jettySize=auto;html=1;" parent="1" source="7_Br2H_ahPFbPy7F2Dwa-96" target="7_Br2H_ahPFbPy7F2Dwa-100" edge="1">
          <mxGeometry relative="1" as="geometry" />
        </mxCell>
        <mxCell id="7_Br2H_ahPFbPy7F2Dwa-96" value="点击修改" style="whiteSpace=wrap;html=1;rounded=0;" parent="1" vertex="1">
          <mxGeometry x="450" y="680" width="120" height="40" as="geometry" />
        </mxCell>
        <mxCell id="7_Br2H_ahPFbPy7F2Dwa-108" style="edgeStyle=orthogonalEdgeStyle;rounded=0;orthogonalLoop=1;jettySize=auto;html=1;entryX=1;entryY=0;entryDx=0;entryDy=0;startArrow=none;" parent="1" source="7_Br2H_ahPFbPy7F2Dwa-112" target="7_Br2H_ahPFbPy7F2Dwa-83" edge="1">
          <mxGeometry relative="1" as="geometry">
            <mxPoint x="360" y="430" as="targetPoint" />
            <Array as="points">
              <mxPoint x="340" y="480" />
              <mxPoint x="340" y="500" />
            </Array>
          </mxGeometry>
        </mxCell>
        <mxCell id="7_Br2H_ahPFbPy7F2Dwa-117" value="修改成功" style="edgeLabel;html=1;align=center;verticalAlign=middle;resizable=0;points=[];" parent="7_Br2H_ahPFbPy7F2Dwa-108" vertex="1" connectable="0">
          <mxGeometry x="-0.5181" relative="1" as="geometry">
            <mxPoint as="offset" />
          </mxGeometry>
        </mxCell>
        <mxCell id="7_Br2H_ahPFbPy7F2Dwa-110" style="edgeStyle=orthogonalEdgeStyle;rounded=0;orthogonalLoop=1;jettySize=auto;html=1;entryX=0.81;entryY=0.023;entryDx=0;entryDy=0;exitX=0.187;exitY=0.59;exitDx=0;exitDy=0;exitPerimeter=0;entryPerimeter=0;" parent="1" source="7_Br2H_ahPFbPy7F2Dwa-112" edge="1">
          <mxGeometry relative="1" as="geometry">
            <mxPoint x="652.8" y="605" as="sourcePoint" />
            <mxPoint x="530" y="591.3800000000001" as="targetPoint" />
            <Array as="points">
              <mxPoint x="653" y="552" />
              <mxPoint x="653" y="550" />
              <mxPoint x="613" y="550" />
              <mxPoint x="613" y="570" />
              <mxPoint x="530" y="570" />
            </Array>
          </mxGeometry>
        </mxCell>
        <mxCell id="7_Br2H_ahPFbPy7F2Dwa-111" value="修改失败" style="edgeLabel;html=1;align=center;verticalAlign=middle;resizable=0;points=[];" parent="7_Br2H_ahPFbPy7F2Dwa-110" vertex="1" connectable="0">
          <mxGeometry x="0.225" y="3" relative="1" as="geometry">
            <mxPoint y="-3" as="offset" />
          </mxGeometry>
        </mxCell>
        <mxCell id="7_Br2H_ahPFbPy7F2Dwa-116" style="edgeStyle=none;rounded=0;orthogonalLoop=1;jettySize=auto;html=1;exitX=0.5;exitY=0;exitDx=0;exitDy=0;entryX=0.5;entryY=1;entryDx=0;entryDy=0;" parent="1" source="7_Br2H_ahPFbPy7F2Dwa-98" target="7_Br2H_ahPFbPy7F2Dwa-112" edge="1">
          <mxGeometry relative="1" as="geometry" />
        </mxCell>
        <mxCell id="7_Br2H_ahPFbPy7F2Dwa-98" value="点击删除" style="whiteSpace=wrap;html=1;rounded=0;" parent="1" vertex="1">
          <mxGeometry x="610" y="605" width="120" height="30" as="geometry" />
        </mxCell>
        <mxCell id="7_Br2H_ahPFbPy7F2Dwa-104" style="edgeStyle=orthogonalEdgeStyle;rounded=0;orthogonalLoop=1;jettySize=auto;html=1;entryX=1;entryY=0.75;entryDx=0;entryDy=0;" parent="1" source="7_Br2H_ahPFbPy7F2Dwa-100" target="7_Br2H_ahPFbPy7F2Dwa-83" edge="1">
          <mxGeometry relative="1" as="geometry" />
        </mxCell>
        <mxCell id="7_Br2H_ahPFbPy7F2Dwa-105" value="修改成功" style="edgeLabel;html=1;align=center;verticalAlign=middle;resizable=0;points=[];" parent="7_Br2H_ahPFbPy7F2Dwa-104" vertex="1" connectable="0">
          <mxGeometry x="0.0685" y="-4" relative="1" as="geometry">
            <mxPoint x="1" as="offset" />
          </mxGeometry>
        </mxCell>
        <mxCell id="7_Br2H_ahPFbPy7F2Dwa-106" style="edgeStyle=orthogonalEdgeStyle;rounded=0;orthogonalLoop=1;jettySize=auto;html=1;entryX=1;entryY=0.75;entryDx=0;entryDy=0;" parent="1" source="7_Br2H_ahPFbPy7F2Dwa-100" target="7_Br2H_ahPFbPy7F2Dwa-92" edge="1">
          <mxGeometry relative="1" as="geometry">
            <Array as="points">
              <mxPoint x="590" y="800" />
              <mxPoint x="590" y="635" />
            </Array>
          </mxGeometry>
        </mxCell>
        <mxCell id="7_Br2H_ahPFbPy7F2Dwa-107" value="修改失败" style="edgeLabel;html=1;align=center;verticalAlign=middle;resizable=0;points=[];" parent="7_Br2H_ahPFbPy7F2Dwa-106" vertex="1" connectable="0">
          <mxGeometry x="-0.308" y="-3" relative="1" as="geometry">
            <mxPoint as="offset" />
          </mxGeometry>
        </mxCell>
        <mxCell id="7_Br2H_ahPFbPy7F2Dwa-100" value="是否修改成功" style="rhombus;whiteSpace=wrap;html=1;rounded=0;" parent="1" vertex="1">
          <mxGeometry x="445" y="760" width="130" height="80" as="geometry" />
        </mxCell>
        <mxCell id="7_Br2H_ahPFbPy7F2Dwa-113" style="edgeStyle=orthogonalEdgeStyle;rounded=0;orthogonalLoop=1;jettySize=auto;html=1;exitX=0.5;exitY=1;exitDx=0;exitDy=0;" parent="1" source="7_Br2H_ahPFbPy7F2Dwa-112" target="7_Br2H_ahPFbPy7F2Dwa-112" edge="1">
          <mxGeometry relative="1" as="geometry" />
        </mxCell>
        <mxCell id="7_Br2H_ahPFbPy7F2Dwa-112" value="是否删除成功" style="rhombus;whiteSpace=wrap;html=1;" parent="1" vertex="1">
          <mxGeometry x="640" y="505" width="60" height="85" as="geometry" />
        </mxCell>
        <mxCell id="7_Br2H_ahPFbPy7F2Dwa-122" value="" style="edgeStyle=none;rounded=0;orthogonalLoop=1;jettySize=auto;html=1;" parent="1" source="7_Br2H_ahPFbPy7F2Dwa-118" target="7_Br2H_ahPFbPy7F2Dwa-120" edge="1">
          <mxGeometry relative="1" as="geometry" />
        </mxCell>
        <mxCell id="7_Br2H_ahPFbPy7F2Dwa-118" value="点击添加按钮" style="whiteSpace=wrap;html=1;rounded=0;" parent="1" vertex="1">
          <mxGeometry x="-10" y="505" width="110" height="50" as="geometry" />
        </mxCell>
        <mxCell id="7_Br2H_ahPFbPy7F2Dwa-130" value="" style="edgeStyle=none;rounded=0;orthogonalLoop=1;jettySize=auto;html=1;entryX=0.5;entryY=0;entryDx=0;entryDy=0;" parent="1" source="7_Br2H_ahPFbPy7F2Dwa-120" target="7_Br2H_ahPFbPy7F2Dwa-127" edge="1">
          <mxGeometry relative="1" as="geometry">
            <Array as="points" />
          </mxGeometry>
        </mxCell>
        <mxCell id="7_Br2H_ahPFbPy7F2Dwa-120" value="进入账单添加界面" style="rounded=0;whiteSpace=wrap;html=1;" parent="1" vertex="1">
          <mxGeometry x="-15" y="600" width="120" height="50" as="geometry" />
        </mxCell>
        <mxCell id="7_Br2H_ahPFbPy7F2Dwa-126" value="" style="edgeStyle=none;rounded=0;orthogonalLoop=1;jettySize=auto;html=1;" parent="1" source="7_Br2H_ahPFbPy7F2Dwa-127" target="7_Br2H_ahPFbPy7F2Dwa-128" edge="1">
          <mxGeometry relative="1" as="geometry" />
        </mxCell>
        <mxCell id="7_Br2H_ahPFbPy7F2Dwa-127" value="点击添加" style="whiteSpace=wrap;html=1;rounded=0;" parent="1" vertex="1">
          <mxGeometry x="-15" y="670" width="120" height="40" as="geometry" />
        </mxCell>
        <mxCell id="7_Br2H_ahPFbPy7F2Dwa-131" style="edgeStyle=none;rounded=0;orthogonalLoop=1;jettySize=auto;html=1;entryX=0.033;entryY=0.87;entryDx=0;entryDy=0;entryPerimeter=0;exitX=0.954;exitY=0.497;exitDx=0;exitDy=0;exitPerimeter=0;" parent="1" source="7_Br2H_ahPFbPy7F2Dwa-128" target="7_Br2H_ahPFbPy7F2Dwa-83" edge="1">
          <mxGeometry relative="1" as="geometry">
            <mxPoint x="130" y="770" as="sourcePoint" />
            <Array as="points">
              <mxPoint x="140" y="770" />
              <mxPoint x="140" y="552" />
            </Array>
          </mxGeometry>
        </mxCell>
        <mxCell id="7_Br2H_ahPFbPy7F2Dwa-132" value="添加成功" style="edgeLabel;html=1;align=center;verticalAlign=middle;resizable=0;points=[];" parent="7_Br2H_ahPFbPy7F2Dwa-131" vertex="1" connectable="0">
          <mxGeometry x="-0.1234" y="3" relative="1" as="geometry">
            <mxPoint as="offset" />
          </mxGeometry>
        </mxCell>
        <mxCell id="7_Br2H_ahPFbPy7F2Dwa-133" style="edgeStyle=none;rounded=0;orthogonalLoop=1;jettySize=auto;html=1;exitX=0;exitY=0.5;exitDx=0;exitDy=0;entryX=0;entryY=0.5;entryDx=0;entryDy=0;" parent="1" source="7_Br2H_ahPFbPy7F2Dwa-128" target="7_Br2H_ahPFbPy7F2Dwa-120" edge="1">
          <mxGeometry relative="1" as="geometry">
            <mxPoint x="-70" y="600" as="targetPoint" />
            <Array as="points">
              <mxPoint x="-70" y="770" />
              <mxPoint x="-70" y="625" />
            </Array>
          </mxGeometry>
        </mxCell>
        <mxCell id="7_Br2H_ahPFbPy7F2Dwa-128" value="是否添加成功" style="rhombus;whiteSpace=wrap;html=1;rounded=0;" parent="1" vertex="1">
          <mxGeometry x="-20" y="740" width="130" height="60" as="geometry" />
        </mxCell>
        <mxCell id="7_Br2H_ahPFbPy7F2Dwa-134" value="添加失败" style="text;html=1;align=center;verticalAlign=middle;resizable=0;points=[];autosize=1;strokeColor=none;fillColor=none;" parent="1" vertex="1">
          <mxGeometry x="-90" y="690" width="60" height="20" as="geometry" />
        </mxCell>
        <mxCell id="7_Br2H_ahPFbPy7F2Dwa-136" value="" style="rounded=0;html=1;jettySize=auto;orthogonalLoop=1;fontSize=11;endArrow=block;endFill=0;endSize=8;strokeWidth=1;shadow=0;labelBackgroundColor=none;edgeStyle=orthogonalEdgeStyle;entryX=0.5;entryY=0;entryDx=0;entryDy=0;" parent="1" source="7_Br2H_ahPFbPy7F2Dwa-137" target="7_Br2H_ahPFbPy7F2Dwa-143" edge="1">
          <mxGeometry relative="1" as="geometry">
            <mxPoint x="240" y="1025" as="targetPoint" />
          </mxGeometry>
        </mxCell>
        <mxCell id="7_Br2H_ahPFbPy7F2Dwa-137" value="点击供应商管理" style="rounded=1;whiteSpace=wrap;html=1;fontSize=12;glass=0;strokeWidth=1;shadow=0;" parent="1" vertex="1">
          <mxGeometry x="180" y="890" width="120" height="40" as="geometry" />
        </mxCell>
        <mxCell id="7_Br2H_ahPFbPy7F2Dwa-138" style="edgeStyle=none;rounded=0;orthogonalLoop=1;jettySize=auto;html=1;exitX=0.5;exitY=1;exitDx=0;exitDy=0;" parent="1" source="7_Br2H_ahPFbPy7F2Dwa-139" target="7_Br2H_ahPFbPy7F2Dwa-144" edge="1">
          <mxGeometry relative="1" as="geometry" />
        </mxCell>
        <mxCell id="7_Br2H_ahPFbPy7F2Dwa-139" value="模糊查询供应商&lt;br&gt;名称与供应商描述" style="rounded=1;whiteSpace=wrap;html=1;fontSize=12;glass=0;strokeWidth=1;shadow=0;" parent="1" vertex="1">
          <mxGeometry x="160" y="1080" width="160" height="60" as="geometry" />
        </mxCell>
        <mxCell id="7_Br2H_ahPFbPy7F2Dwa-140" style="edgeStyle=none;rounded=0;orthogonalLoop=1;jettySize=auto;html=1;exitX=0.5;exitY=1;exitDx=0;exitDy=0;" parent="1" source="7_Br2H_ahPFbPy7F2Dwa-143" target="7_Br2H_ahPFbPy7F2Dwa-139" edge="1">
          <mxGeometry relative="1" as="geometry" />
        </mxCell>
        <mxCell id="7_Br2H_ahPFbPy7F2Dwa-141" value="" style="edgeStyle=none;rounded=0;orthogonalLoop=1;jettySize=auto;html=1;" parent="1" source="7_Br2H_ahPFbPy7F2Dwa-143" target="7_Br2H_ahPFbPy7F2Dwa-146" edge="1">
          <mxGeometry relative="1" as="geometry" />
        </mxCell>
        <mxCell id="7_Br2H_ahPFbPy7F2Dwa-142" value="" style="edgeStyle=none;rounded=0;orthogonalLoop=1;jettySize=auto;html=1;" parent="1" source="7_Br2H_ahPFbPy7F2Dwa-143" target="7_Br2H_ahPFbPy7F2Dwa-166" edge="1">
          <mxGeometry relative="1" as="geometry" />
        </mxCell>
        <mxCell id="7_Br2H_ahPFbPy7F2Dwa-143" value="显示供应商列表" style="rounded=0;whiteSpace=wrap;html=1;" parent="1" vertex="1">
          <mxGeometry x="180" y="980" width="120" height="60" as="geometry" />
        </mxCell>
        <mxCell id="7_Br2H_ahPFbPy7F2Dwa-144" value="显示供应商&lt;br&gt;查询结果列表" style="rounded=0;whiteSpace=wrap;html=1;" parent="1" vertex="1">
          <mxGeometry x="175" y="1180" width="130" height="60" as="geometry" />
        </mxCell>
        <mxCell id="7_Br2H_ahPFbPy7F2Dwa-145" value="" style="edgeStyle=none;rounded=0;orthogonalLoop=1;jettySize=auto;html=1;" parent="1" source="7_Br2H_ahPFbPy7F2Dwa-146" target="7_Br2H_ahPFbPy7F2Dwa-149" edge="1">
          <mxGeometry relative="1" as="geometry" />
        </mxCell>
        <mxCell id="7_Br2H_ahPFbPy7F2Dwa-146" value="点击供应商&lt;br&gt;编号" style="whiteSpace=wrap;html=1;rounded=0;" parent="1" vertex="1">
          <mxGeometry x="450" y="980" width="120" height="60" as="geometry" />
        </mxCell>
        <mxCell id="7_Br2H_ahPFbPy7F2Dwa-147" value="" style="edgeStyle=none;rounded=0;orthogonalLoop=1;jettySize=auto;html=1;" parent="1" source="7_Br2H_ahPFbPy7F2Dwa-149" target="7_Br2H_ahPFbPy7F2Dwa-151" edge="1">
          <mxGeometry relative="1" as="geometry" />
        </mxCell>
        <mxCell id="7_Br2H_ahPFbPy7F2Dwa-148" value="" style="edgeStyle=none;rounded=0;orthogonalLoop=1;jettySize=auto;html=1;" parent="1" source="7_Br2H_ahPFbPy7F2Dwa-149" target="7_Br2H_ahPFbPy7F2Dwa-157" edge="1">
          <mxGeometry relative="1" as="geometry" />
        </mxCell>
        <mxCell id="7_Br2H_ahPFbPy7F2Dwa-149" value="进入供应商&lt;br&gt;编辑界面" style="rounded=0;whiteSpace=wrap;html=1;" parent="1" vertex="1">
          <mxGeometry x="450" y="1070" width="120" height="60" as="geometry" />
        </mxCell>
        <mxCell id="7_Br2H_ahPFbPy7F2Dwa-150" value="" style="edgeStyle=none;rounded=0;orthogonalLoop=1;jettySize=auto;html=1;" parent="1" source="7_Br2H_ahPFbPy7F2Dwa-151" target="7_Br2H_ahPFbPy7F2Dwa-162" edge="1">
          <mxGeometry relative="1" as="geometry" />
        </mxCell>
        <mxCell id="7_Br2H_ahPFbPy7F2Dwa-151" value="点击修改" style="whiteSpace=wrap;html=1;rounded=0;" parent="1" vertex="1">
          <mxGeometry x="450" y="1160" width="120" height="40" as="geometry" />
        </mxCell>
        <mxCell id="7_Br2H_ahPFbPy7F2Dwa-152" style="edgeStyle=orthogonalEdgeStyle;rounded=0;orthogonalLoop=1;jettySize=auto;html=1;entryX=1;entryY=0;entryDx=0;entryDy=0;startArrow=none;" parent="1" source="7_Br2H_ahPFbPy7F2Dwa-164" target="7_Br2H_ahPFbPy7F2Dwa-143" edge="1">
          <mxGeometry relative="1" as="geometry">
            <mxPoint x="360" y="910" as="targetPoint" />
            <Array as="points">
              <mxPoint x="340" y="960" />
              <mxPoint x="340" y="980" />
            </Array>
          </mxGeometry>
        </mxCell>
        <mxCell id="7_Br2H_ahPFbPy7F2Dwa-153" value="修改成功" style="edgeLabel;html=1;align=center;verticalAlign=middle;resizable=0;points=[];" parent="7_Br2H_ahPFbPy7F2Dwa-152" vertex="1" connectable="0">
          <mxGeometry x="-0.5181" relative="1" as="geometry">
            <mxPoint as="offset" />
          </mxGeometry>
        </mxCell>
        <mxCell id="7_Br2H_ahPFbPy7F2Dwa-154" style="edgeStyle=orthogonalEdgeStyle;rounded=0;orthogonalLoop=1;jettySize=auto;html=1;entryX=0.81;entryY=0.023;entryDx=0;entryDy=0;exitX=0.187;exitY=0.59;exitDx=0;exitDy=0;exitPerimeter=0;entryPerimeter=0;" parent="1" source="7_Br2H_ahPFbPy7F2Dwa-164" edge="1">
          <mxGeometry relative="1" as="geometry">
            <mxPoint x="652.8" y="1085" as="sourcePoint" />
            <mxPoint x="530" y="1071.38" as="targetPoint" />
            <Array as="points">
              <mxPoint x="653" y="1032" />
              <mxPoint x="653" y="1030" />
              <mxPoint x="613" y="1030" />
              <mxPoint x="613" y="1050" />
              <mxPoint x="530" y="1050" />
            </Array>
          </mxGeometry>
        </mxCell>
        <mxCell id="7_Br2H_ahPFbPy7F2Dwa-155" value="修改失败" style="edgeLabel;html=1;align=center;verticalAlign=middle;resizable=0;points=[];" parent="7_Br2H_ahPFbPy7F2Dwa-154" vertex="1" connectable="0">
          <mxGeometry x="0.225" y="3" relative="1" as="geometry">
            <mxPoint y="-3" as="offset" />
          </mxGeometry>
        </mxCell>
        <mxCell id="7_Br2H_ahPFbPy7F2Dwa-156" style="edgeStyle=none;rounded=0;orthogonalLoop=1;jettySize=auto;html=1;exitX=0.5;exitY=0;exitDx=0;exitDy=0;entryX=0.5;entryY=1;entryDx=0;entryDy=0;" parent="1" source="7_Br2H_ahPFbPy7F2Dwa-157" target="7_Br2H_ahPFbPy7F2Dwa-164" edge="1">
          <mxGeometry relative="1" as="geometry" />
        </mxCell>
        <mxCell id="7_Br2H_ahPFbPy7F2Dwa-157" value="点击删除" style="whiteSpace=wrap;html=1;rounded=0;" parent="1" vertex="1">
          <mxGeometry x="610" y="1085" width="120" height="30" as="geometry" />
        </mxCell>
        <mxCell id="7_Br2H_ahPFbPy7F2Dwa-158" style="edgeStyle=orthogonalEdgeStyle;rounded=0;orthogonalLoop=1;jettySize=auto;html=1;entryX=1;entryY=0.75;entryDx=0;entryDy=0;" parent="1" source="7_Br2H_ahPFbPy7F2Dwa-162" target="7_Br2H_ahPFbPy7F2Dwa-143" edge="1">
          <mxGeometry relative="1" as="geometry" />
        </mxCell>
        <mxCell id="7_Br2H_ahPFbPy7F2Dwa-159" value="修改成功" style="edgeLabel;html=1;align=center;verticalAlign=middle;resizable=0;points=[];" parent="7_Br2H_ahPFbPy7F2Dwa-158" vertex="1" connectable="0">
          <mxGeometry x="0.0685" y="-4" relative="1" as="geometry">
            <mxPoint x="1" as="offset" />
          </mxGeometry>
        </mxCell>
        <mxCell id="7_Br2H_ahPFbPy7F2Dwa-160" style="edgeStyle=orthogonalEdgeStyle;rounded=0;orthogonalLoop=1;jettySize=auto;html=1;entryX=1;entryY=0.75;entryDx=0;entryDy=0;" parent="1" source="7_Br2H_ahPFbPy7F2Dwa-162" target="7_Br2H_ahPFbPy7F2Dwa-149" edge="1">
          <mxGeometry relative="1" as="geometry">
            <Array as="points">
              <mxPoint x="590" y="1280" />
              <mxPoint x="590" y="1115" />
            </Array>
          </mxGeometry>
        </mxCell>
        <mxCell id="7_Br2H_ahPFbPy7F2Dwa-161" value="修改失败" style="edgeLabel;html=1;align=center;verticalAlign=middle;resizable=0;points=[];" parent="7_Br2H_ahPFbPy7F2Dwa-160" vertex="1" connectable="0">
          <mxGeometry x="-0.308" y="-3" relative="1" as="geometry">
            <mxPoint as="offset" />
          </mxGeometry>
        </mxCell>
        <mxCell id="7_Br2H_ahPFbPy7F2Dwa-162" value="是否修改成功" style="rhombus;whiteSpace=wrap;html=1;rounded=0;" parent="1" vertex="1">
          <mxGeometry x="445" y="1240" width="130" height="80" as="geometry" />
        </mxCell>
        <mxCell id="7_Br2H_ahPFbPy7F2Dwa-163" style="edgeStyle=orthogonalEdgeStyle;rounded=0;orthogonalLoop=1;jettySize=auto;html=1;exitX=0.5;exitY=1;exitDx=0;exitDy=0;" parent="1" source="7_Br2H_ahPFbPy7F2Dwa-164" target="7_Br2H_ahPFbPy7F2Dwa-164" edge="1">
          <mxGeometry relative="1" as="geometry" />
        </mxCell>
        <mxCell id="7_Br2H_ahPFbPy7F2Dwa-164" value="是否删除成功" style="rhombus;whiteSpace=wrap;html=1;" parent="1" vertex="1">
          <mxGeometry x="640" y="985" width="60" height="85" as="geometry" />
        </mxCell>
        <mxCell id="7_Br2H_ahPFbPy7F2Dwa-165" value="" style="edgeStyle=none;rounded=0;orthogonalLoop=1;jettySize=auto;html=1;" parent="1" source="7_Br2H_ahPFbPy7F2Dwa-166" target="7_Br2H_ahPFbPy7F2Dwa-168" edge="1">
          <mxGeometry relative="1" as="geometry" />
        </mxCell>
        <mxCell id="7_Br2H_ahPFbPy7F2Dwa-166" value="点击添加按钮" style="whiteSpace=wrap;html=1;rounded=0;" parent="1" vertex="1">
          <mxGeometry x="-10" y="985" width="110" height="50" as="geometry" />
        </mxCell>
        <mxCell id="7_Br2H_ahPFbPy7F2Dwa-167" value="" style="edgeStyle=none;rounded=0;orthogonalLoop=1;jettySize=auto;html=1;entryX=0.5;entryY=0;entryDx=0;entryDy=0;" parent="1" source="7_Br2H_ahPFbPy7F2Dwa-168" target="7_Br2H_ahPFbPy7F2Dwa-170" edge="1">
          <mxGeometry relative="1" as="geometry">
            <Array as="points" />
          </mxGeometry>
        </mxCell>
        <mxCell id="7_Br2H_ahPFbPy7F2Dwa-168" value="进入供应商&lt;br&gt;添加界面" style="rounded=0;whiteSpace=wrap;html=1;" parent="1" vertex="1">
          <mxGeometry x="-15" y="1080" width="120" height="50" as="geometry" />
        </mxCell>
        <mxCell id="7_Br2H_ahPFbPy7F2Dwa-169" value="" style="edgeStyle=none;rounded=0;orthogonalLoop=1;jettySize=auto;html=1;" parent="1" source="7_Br2H_ahPFbPy7F2Dwa-170" target="7_Br2H_ahPFbPy7F2Dwa-174" edge="1">
          <mxGeometry relative="1" as="geometry" />
        </mxCell>
        <mxCell id="7_Br2H_ahPFbPy7F2Dwa-170" value="点击添加" style="whiteSpace=wrap;html=1;rounded=0;" parent="1" vertex="1">
          <mxGeometry x="-15" y="1150" width="120" height="40" as="geometry" />
        </mxCell>
        <mxCell id="7_Br2H_ahPFbPy7F2Dwa-171" style="edgeStyle=none;rounded=0;orthogonalLoop=1;jettySize=auto;html=1;entryX=0.033;entryY=0.87;entryDx=0;entryDy=0;entryPerimeter=0;exitX=0.954;exitY=0.497;exitDx=0;exitDy=0;exitPerimeter=0;" parent="1" source="7_Br2H_ahPFbPy7F2Dwa-174" target="7_Br2H_ahPFbPy7F2Dwa-143" edge="1">
          <mxGeometry relative="1" as="geometry">
            <mxPoint x="130" y="1250" as="sourcePoint" />
            <Array as="points">
              <mxPoint x="140" y="1250" />
              <mxPoint x="140" y="1032" />
            </Array>
          </mxGeometry>
        </mxCell>
        <mxCell id="7_Br2H_ahPFbPy7F2Dwa-172" value="添加成功" style="edgeLabel;html=1;align=center;verticalAlign=middle;resizable=0;points=[];" parent="7_Br2H_ahPFbPy7F2Dwa-171" vertex="1" connectable="0">
          <mxGeometry x="-0.1234" y="3" relative="1" as="geometry">
            <mxPoint as="offset" />
          </mxGeometry>
        </mxCell>
        <mxCell id="7_Br2H_ahPFbPy7F2Dwa-173" style="edgeStyle=none;rounded=0;orthogonalLoop=1;jettySize=auto;html=1;exitX=0;exitY=0.5;exitDx=0;exitDy=0;entryX=0;entryY=0.5;entryDx=0;entryDy=0;" parent="1" source="7_Br2H_ahPFbPy7F2Dwa-174" target="7_Br2H_ahPFbPy7F2Dwa-168" edge="1">
          <mxGeometry relative="1" as="geometry">
            <mxPoint x="-70" y="1080" as="targetPoint" />
            <Array as="points">
              <mxPoint x="-70" y="1250" />
              <mxPoint x="-70" y="1105" />
            </Array>
          </mxGeometry>
        </mxCell>
        <mxCell id="7_Br2H_ahPFbPy7F2Dwa-174" value="是否添加成功" style="rhombus;whiteSpace=wrap;html=1;rounded=0;" parent="1" vertex="1">
          <mxGeometry x="-20" y="1220" width="130" height="60" as="geometry" />
        </mxCell>
        <mxCell id="7_Br2H_ahPFbPy7F2Dwa-175" value="添加失败" style="text;html=1;align=center;verticalAlign=middle;resizable=0;points=[];autosize=1;strokeColor=none;fillColor=none;" parent="1" vertex="1">
          <mxGeometry x="-90" y="1170" width="60" height="20" as="geometry" />
        </mxCell>
        <mxCell id="7_Br2H_ahPFbPy7F2Dwa-176" value="" style="rounded=0;html=1;jettySize=auto;orthogonalLoop=1;fontSize=11;endArrow=block;endFill=0;endSize=8;strokeWidth=1;shadow=0;labelBackgroundColor=none;edgeStyle=orthogonalEdgeStyle;entryX=0.5;entryY=0;entryDx=0;entryDy=0;" parent="1" source="7_Br2H_ahPFbPy7F2Dwa-177" target="7_Br2H_ahPFbPy7F2Dwa-183" edge="1">
          <mxGeometry relative="1" as="geometry">
            <mxPoint x="240" y="1575" as="targetPoint" />
          </mxGeometry>
        </mxCell>
        <mxCell id="7_Br2H_ahPFbPy7F2Dwa-177" value="点击用户管理" style="rounded=1;whiteSpace=wrap;html=1;fontSize=12;glass=0;strokeWidth=1;shadow=0;" parent="1" vertex="1">
          <mxGeometry x="180" y="1440" width="120" height="40" as="geometry" />
        </mxCell>
        <mxCell id="7_Br2H_ahPFbPy7F2Dwa-178" style="edgeStyle=none;rounded=0;orthogonalLoop=1;jettySize=auto;html=1;exitX=0.5;exitY=1;exitDx=0;exitDy=0;" parent="1" source="7_Br2H_ahPFbPy7F2Dwa-179" target="7_Br2H_ahPFbPy7F2Dwa-184" edge="1">
          <mxGeometry relative="1" as="geometry" />
        </mxCell>
        <mxCell id="7_Br2H_ahPFbPy7F2Dwa-179" value="模糊查询用户名称" style="rounded=1;whiteSpace=wrap;html=1;fontSize=12;glass=0;strokeWidth=1;shadow=0;" parent="1" vertex="1">
          <mxGeometry x="160" y="1630" width="160" height="60" as="geometry" />
        </mxCell>
        <mxCell id="7_Br2H_ahPFbPy7F2Dwa-180" style="edgeStyle=none;rounded=0;orthogonalLoop=1;jettySize=auto;html=1;exitX=0.5;exitY=1;exitDx=0;exitDy=0;" parent="1" source="7_Br2H_ahPFbPy7F2Dwa-183" target="7_Br2H_ahPFbPy7F2Dwa-179" edge="1">
          <mxGeometry relative="1" as="geometry" />
        </mxCell>
        <mxCell id="7_Br2H_ahPFbPy7F2Dwa-181" value="" style="edgeStyle=none;rounded=0;orthogonalLoop=1;jettySize=auto;html=1;" parent="1" source="7_Br2H_ahPFbPy7F2Dwa-183" target="7_Br2H_ahPFbPy7F2Dwa-186" edge="1">
          <mxGeometry relative="1" as="geometry" />
        </mxCell>
        <mxCell id="7_Br2H_ahPFbPy7F2Dwa-182" value="" style="edgeStyle=none;rounded=0;orthogonalLoop=1;jettySize=auto;html=1;" parent="1" source="7_Br2H_ahPFbPy7F2Dwa-183" target="7_Br2H_ahPFbPy7F2Dwa-206" edge="1">
          <mxGeometry relative="1" as="geometry" />
        </mxCell>
        <mxCell id="7_Br2H_ahPFbPy7F2Dwa-183" value="显示用户&lt;br&gt;列表" style="rounded=0;whiteSpace=wrap;html=1;" parent="1" vertex="1">
          <mxGeometry x="180" y="1530" width="120" height="60" as="geometry" />
        </mxCell>
        <mxCell id="7_Br2H_ahPFbPy7F2Dwa-184" value="显示用户&lt;br&gt;查询结果列表" style="rounded=0;whiteSpace=wrap;html=1;" parent="1" vertex="1">
          <mxGeometry x="175" y="1730" width="130" height="60" as="geometry" />
        </mxCell>
        <mxCell id="7_Br2H_ahPFbPy7F2Dwa-185" value="" style="edgeStyle=none;rounded=0;orthogonalLoop=1;jettySize=auto;html=1;startArrow=none;" parent="1" source="7_Br2H_ahPFbPy7F2Dwa-257" target="7_Br2H_ahPFbPy7F2Dwa-189" edge="1">
          <mxGeometry relative="1" as="geometry" />
        </mxCell>
        <mxCell id="7_Br2H_ahPFbPy7F2Dwa-186" value="点击用户姓名" style="whiteSpace=wrap;html=1;rounded=0;" parent="1" vertex="1">
          <mxGeometry x="450" y="1530" width="120" height="60" as="geometry" />
        </mxCell>
        <mxCell id="7_Br2H_ahPFbPy7F2Dwa-187" value="" style="edgeStyle=none;rounded=0;orthogonalLoop=1;jettySize=auto;html=1;" parent="1" source="7_Br2H_ahPFbPy7F2Dwa-189" target="7_Br2H_ahPFbPy7F2Dwa-191" edge="1">
          <mxGeometry relative="1" as="geometry" />
        </mxCell>
        <mxCell id="7_Br2H_ahPFbPy7F2Dwa-273" style="edgeStyle=none;rounded=0;orthogonalLoop=1;jettySize=auto;html=1;fontFamily=Helvetica;fontSize=12;fontColor=default;entryX=0.561;entryY=1.05;entryDx=0;entryDy=0;entryPerimeter=0;exitX=1;exitY=0.75;exitDx=0;exitDy=0;" parent="1" source="7_Br2H_ahPFbPy7F2Dwa-189" target="7_Br2H_ahPFbPy7F2Dwa-197" edge="1">
          <mxGeometry relative="1" as="geometry">
            <mxPoint x="860" y="1720" as="targetPoint" />
            <Array as="points">
              <mxPoint x="857" y="1730" />
            </Array>
          </mxGeometry>
        </mxCell>
        <mxCell id="7_Br2H_ahPFbPy7F2Dwa-189" value="进入用户&lt;br&gt;编辑界面（可以修改密码）" style="rounded=0;whiteSpace=wrap;html=1;" parent="1" vertex="1">
          <mxGeometry x="420" y="1680" width="180" height="60" as="geometry" />
        </mxCell>
        <mxCell id="7_Br2H_ahPFbPy7F2Dwa-190" value="" style="edgeStyle=none;rounded=0;orthogonalLoop=1;jettySize=auto;html=1;entryX=0.5;entryY=0;entryDx=0;entryDy=0;" parent="1" source="7_Br2H_ahPFbPy7F2Dwa-191" target="7_Br2H_ahPFbPy7F2Dwa-202" edge="1">
          <mxGeometry relative="1" as="geometry">
            <mxPoint x="510" y="1819" as="targetPoint" />
          </mxGeometry>
        </mxCell>
        <mxCell id="7_Br2H_ahPFbPy7F2Dwa-191" value="点击修改" style="whiteSpace=wrap;html=1;rounded=0;" parent="1" vertex="1">
          <mxGeometry x="450" y="1770" width="120" height="40" as="geometry" />
        </mxCell>
        <mxCell id="7_Br2H_ahPFbPy7F2Dwa-192" style="edgeStyle=orthogonalEdgeStyle;rounded=0;orthogonalLoop=1;jettySize=auto;html=1;entryX=1;entryY=0;entryDx=0;entryDy=0;startArrow=none;" parent="1" source="7_Br2H_ahPFbPy7F2Dwa-204" target="7_Br2H_ahPFbPy7F2Dwa-183" edge="1">
          <mxGeometry relative="1" as="geometry">
            <mxPoint x="360" y="1460" as="targetPoint" />
            <Array as="points">
              <mxPoint x="340" y="1510" />
              <mxPoint x="340" y="1530" />
            </Array>
          </mxGeometry>
        </mxCell>
        <mxCell id="7_Br2H_ahPFbPy7F2Dwa-193" value="修改成功" style="edgeLabel;html=1;align=center;verticalAlign=middle;resizable=0;points=[];" parent="7_Br2H_ahPFbPy7F2Dwa-192" vertex="1" connectable="0">
          <mxGeometry x="-0.5181" relative="1" as="geometry">
            <mxPoint as="offset" />
          </mxGeometry>
        </mxCell>
        <mxCell id="7_Br2H_ahPFbPy7F2Dwa-269" style="edgeStyle=none;rounded=0;orthogonalLoop=1;jettySize=auto;html=1;entryX=0.511;entryY=0.924;entryDx=0;entryDy=0;entryPerimeter=0;fontFamily=Helvetica;fontSize=12;fontColor=default;" parent="1" source="7_Br2H_ahPFbPy7F2Dwa-197" target="7_Br2H_ahPFbPy7F2Dwa-204" edge="1">
          <mxGeometry relative="1" as="geometry" />
        </mxCell>
        <mxCell id="7_Br2H_ahPFbPy7F2Dwa-270" style="edgeStyle=none;rounded=0;orthogonalLoop=1;jettySize=auto;html=1;entryX=1;entryY=0.25;entryDx=0;entryDy=0;fontFamily=Helvetica;fontSize=12;fontColor=default;exitX=0;exitY=0;exitDx=0;exitDy=0;" parent="1" source="7_Br2H_ahPFbPy7F2Dwa-197" target="7_Br2H_ahPFbPy7F2Dwa-261" edge="1">
          <mxGeometry relative="1" as="geometry">
            <Array as="points">
              <mxPoint x="790" y="1615" />
            </Array>
          </mxGeometry>
        </mxCell>
        <mxCell id="7_Br2H_ahPFbPy7F2Dwa-197" value="点击删除" style="whiteSpace=wrap;html=1;rounded=0;" parent="1" vertex="1">
          <mxGeometry x="790" y="1670" width="120" height="30" as="geometry" />
        </mxCell>
        <mxCell id="7_Br2H_ahPFbPy7F2Dwa-198" style="edgeStyle=orthogonalEdgeStyle;rounded=0;orthogonalLoop=1;jettySize=auto;html=1;entryX=1;entryY=0.75;entryDx=0;entryDy=0;" parent="1" source="7_Br2H_ahPFbPy7F2Dwa-202" target="7_Br2H_ahPFbPy7F2Dwa-183" edge="1">
          <mxGeometry relative="1" as="geometry" />
        </mxCell>
        <mxCell id="7_Br2H_ahPFbPy7F2Dwa-199" value="修改成功" style="edgeLabel;html=1;align=center;verticalAlign=middle;resizable=0;points=[];" parent="7_Br2H_ahPFbPy7F2Dwa-198" vertex="1" connectable="0">
          <mxGeometry x="0.0685" y="-4" relative="1" as="geometry">
            <mxPoint x="1" as="offset" />
          </mxGeometry>
        </mxCell>
        <mxCell id="7_Br2H_ahPFbPy7F2Dwa-265" style="edgeStyle=none;rounded=0;orthogonalLoop=1;jettySize=auto;html=1;entryX=0;entryY=0.75;entryDx=0;entryDy=0;fontFamily=Helvetica;fontSize=12;fontColor=default;" parent="1" source="7_Br2H_ahPFbPy7F2Dwa-202" target="7_Br2H_ahPFbPy7F2Dwa-189" edge="1">
          <mxGeometry relative="1" as="geometry">
            <Array as="points">
              <mxPoint x="420" y="1880" />
            </Array>
          </mxGeometry>
        </mxCell>
        <mxCell id="7_Br2H_ahPFbPy7F2Dwa-267" style="edgeStyle=none;rounded=0;orthogonalLoop=1;jettySize=auto;html=1;entryX=0.885;entryY=1.093;entryDx=0;entryDy=0;entryPerimeter=0;fontFamily=Helvetica;fontSize=12;fontColor=default;" parent="1" source="7_Br2H_ahPFbPy7F2Dwa-202" target="7_Br2H_ahPFbPy7F2Dwa-261" edge="1">
          <mxGeometry relative="1" as="geometry">
            <Array as="points">
              <mxPoint x="726" y="1880" />
            </Array>
          </mxGeometry>
        </mxCell>
        <mxCell id="7_Br2H_ahPFbPy7F2Dwa-268" value="修改失败" style="edgeLabel;html=1;align=center;verticalAlign=middle;resizable=0;points=[];fontSize=12;fontFamily=Helvetica;fontColor=default;" parent="7_Br2H_ahPFbPy7F2Dwa-267" vertex="1" connectable="0">
          <mxGeometry x="-0.4571" y="-2" relative="1" as="geometry">
            <mxPoint as="offset" />
          </mxGeometry>
        </mxCell>
        <mxCell id="7_Br2H_ahPFbPy7F2Dwa-202" value="是否修改成功" style="rhombus;whiteSpace=wrap;html=1;rounded=0;" parent="1" vertex="1">
          <mxGeometry x="445" y="1840" width="130" height="80" as="geometry" />
        </mxCell>
        <mxCell id="7_Br2H_ahPFbPy7F2Dwa-203" style="edgeStyle=orthogonalEdgeStyle;rounded=0;orthogonalLoop=1;jettySize=auto;html=1;exitX=0.5;exitY=1;exitDx=0;exitDy=0;" parent="1" edge="1">
          <mxGeometry relative="1" as="geometry">
            <mxPoint x="670" y="1680" as="sourcePoint" />
            <mxPoint x="670" y="1680" as="targetPoint" />
          </mxGeometry>
        </mxCell>
        <mxCell id="7_Br2H_ahPFbPy7F2Dwa-204" value="是否删除成功" style="rhombus;whiteSpace=wrap;html=1;" parent="1" vertex="1">
          <mxGeometry x="820" y="1525" width="60" height="85" as="geometry" />
        </mxCell>
        <mxCell id="7_Br2H_ahPFbPy7F2Dwa-205" value="" style="edgeStyle=none;rounded=0;orthogonalLoop=1;jettySize=auto;html=1;" parent="1" source="7_Br2H_ahPFbPy7F2Dwa-206" target="7_Br2H_ahPFbPy7F2Dwa-208" edge="1">
          <mxGeometry relative="1" as="geometry" />
        </mxCell>
        <mxCell id="7_Br2H_ahPFbPy7F2Dwa-206" value="点击添加按钮" style="whiteSpace=wrap;html=1;rounded=0;" parent="1" vertex="1">
          <mxGeometry x="-10" y="1535" width="110" height="50" as="geometry" />
        </mxCell>
        <mxCell id="7_Br2H_ahPFbPy7F2Dwa-207" value="" style="edgeStyle=none;rounded=0;orthogonalLoop=1;jettySize=auto;html=1;entryX=0.5;entryY=0;entryDx=0;entryDy=0;" parent="1" source="7_Br2H_ahPFbPy7F2Dwa-208" target="7_Br2H_ahPFbPy7F2Dwa-210" edge="1">
          <mxGeometry relative="1" as="geometry">
            <Array as="points" />
          </mxGeometry>
        </mxCell>
        <mxCell id="7_Br2H_ahPFbPy7F2Dwa-208" value="进入用户&lt;br&gt;添加界面" style="rounded=0;whiteSpace=wrap;html=1;" parent="1" vertex="1">
          <mxGeometry x="-15" y="1630" width="120" height="50" as="geometry" />
        </mxCell>
        <mxCell id="7_Br2H_ahPFbPy7F2Dwa-209" value="" style="edgeStyle=none;rounded=0;orthogonalLoop=1;jettySize=auto;html=1;" parent="1" source="7_Br2H_ahPFbPy7F2Dwa-210" target="7_Br2H_ahPFbPy7F2Dwa-214" edge="1">
          <mxGeometry relative="1" as="geometry" />
        </mxCell>
        <mxCell id="7_Br2H_ahPFbPy7F2Dwa-210" value="点击添加" style="whiteSpace=wrap;html=1;rounded=0;" parent="1" vertex="1">
          <mxGeometry x="-15" y="1700" width="120" height="40" as="geometry" />
        </mxCell>
        <mxCell id="7_Br2H_ahPFbPy7F2Dwa-211" style="edgeStyle=none;rounded=0;orthogonalLoop=1;jettySize=auto;html=1;entryX=0.033;entryY=0.87;entryDx=0;entryDy=0;entryPerimeter=0;exitX=0.954;exitY=0.497;exitDx=0;exitDy=0;exitPerimeter=0;" parent="1" source="7_Br2H_ahPFbPy7F2Dwa-214" target="7_Br2H_ahPFbPy7F2Dwa-183" edge="1">
          <mxGeometry relative="1" as="geometry">
            <mxPoint x="130" y="1800" as="sourcePoint" />
            <Array as="points">
              <mxPoint x="140" y="1800" />
              <mxPoint x="140" y="1582" />
            </Array>
          </mxGeometry>
        </mxCell>
        <mxCell id="7_Br2H_ahPFbPy7F2Dwa-212" value="添加成功" style="edgeLabel;html=1;align=center;verticalAlign=middle;resizable=0;points=[];" parent="7_Br2H_ahPFbPy7F2Dwa-211" vertex="1" connectable="0">
          <mxGeometry x="-0.1234" y="3" relative="1" as="geometry">
            <mxPoint as="offset" />
          </mxGeometry>
        </mxCell>
        <mxCell id="7_Br2H_ahPFbPy7F2Dwa-213" style="edgeStyle=none;rounded=0;orthogonalLoop=1;jettySize=auto;html=1;exitX=0;exitY=0.5;exitDx=0;exitDy=0;entryX=0;entryY=0.5;entryDx=0;entryDy=0;" parent="1" source="7_Br2H_ahPFbPy7F2Dwa-214" target="7_Br2H_ahPFbPy7F2Dwa-208" edge="1">
          <mxGeometry relative="1" as="geometry">
            <mxPoint x="-70" y="1630" as="targetPoint" />
            <Array as="points">
              <mxPoint x="-70" y="1800" />
              <mxPoint x="-70" y="1655" />
            </Array>
          </mxGeometry>
        </mxCell>
        <mxCell id="7_Br2H_ahPFbPy7F2Dwa-214" value="是否添加成功" style="rhombus;whiteSpace=wrap;html=1;rounded=0;" parent="1" vertex="1">
          <mxGeometry x="-20" y="1770" width="130" height="60" as="geometry" />
        </mxCell>
        <mxCell id="7_Br2H_ahPFbPy7F2Dwa-215" value="添加失败" style="text;html=1;align=center;verticalAlign=middle;resizable=0;points=[];autosize=1;strokeColor=none;fillColor=none;" parent="1" vertex="1">
          <mxGeometry x="-90" y="1720" width="60" height="20" as="geometry" />
        </mxCell>
        <mxCell id="7_Br2H_ahPFbPy7F2Dwa-216" value="" style="rounded=0;html=1;jettySize=auto;orthogonalLoop=1;fontSize=11;endArrow=block;endFill=0;endSize=8;strokeWidth=1;shadow=0;labelBackgroundColor=none;edgeStyle=orthogonalEdgeStyle;entryX=0.5;entryY=0;entryDx=0;entryDy=0;" parent="1" source="7_Br2H_ahPFbPy7F2Dwa-217" target="7_Br2H_ahPFbPy7F2Dwa-223" edge="1">
          <mxGeometry relative="1" as="geometry">
            <mxPoint x="190" y="2105" as="targetPoint" />
          </mxGeometry>
        </mxCell>
        <mxCell id="7_Br2H_ahPFbPy7F2Dwa-217" value="点击用户修改密码" style="rounded=1;whiteSpace=wrap;html=1;fontSize=12;glass=0;strokeWidth=1;shadow=0;" parent="1" vertex="1">
          <mxGeometry x="130" y="1970" width="120" height="40" as="geometry" />
        </mxCell>
        <mxCell id="7_Br2H_ahPFbPy7F2Dwa-275" value="" style="edgeStyle=none;rounded=0;orthogonalLoop=1;jettySize=auto;html=1;fontFamily=Helvetica;fontSize=12;fontColor=default;" parent="1" source="7_Br2H_ahPFbPy7F2Dwa-223" target="7_Br2H_ahPFbPy7F2Dwa-274" edge="1">
          <mxGeometry relative="1" as="geometry" />
        </mxCell>
        <mxCell id="7_Br2H_ahPFbPy7F2Dwa-223" value="进入修改密码界面" style="rounded=0;whiteSpace=wrap;html=1;" parent="1" vertex="1">
          <mxGeometry x="130" y="2060" width="120" height="60" as="geometry" />
        </mxCell>
        <mxCell id="7_Br2H_ahPFbPy7F2Dwa-253" style="edgeStyle=none;rounded=0;orthogonalLoop=1;jettySize=auto;html=1;exitX=0;exitY=0.5;exitDx=0;exitDy=0;entryX=0;entryY=0.5;entryDx=0;entryDy=0;" parent="1" edge="1">
          <mxGeometry relative="1" as="geometry">
            <mxPoint x="-65" y="2185" as="targetPoint" />
            <Array as="points">
              <mxPoint x="-120" y="2330" />
              <mxPoint x="-120" y="2185" />
            </Array>
          </mxGeometry>
        </mxCell>
        <mxCell id="7_Br2H_ahPFbPy7F2Dwa-262" value="" style="edgeStyle=none;rounded=0;orthogonalLoop=1;jettySize=auto;html=1;fontFamily=Helvetica;fontSize=12;fontColor=default;" parent="1" source="7_Br2H_ahPFbPy7F2Dwa-257" target="7_Br2H_ahPFbPy7F2Dwa-261" edge="1">
          <mxGeometry relative="1" as="geometry" />
        </mxCell>
        <mxCell id="7_Br2H_ahPFbPy7F2Dwa-257" value="判断是否是管理员" style="rhombus;whiteSpace=wrap;html=1;" parent="1" vertex="1">
          <mxGeometry x="445" y="1610" width="130" height="40" as="geometry" />
        </mxCell>
        <mxCell id="7_Br2H_ahPFbPy7F2Dwa-258" value="" style="edgeStyle=none;rounded=0;orthogonalLoop=1;jettySize=auto;html=1;endArrow=none;" parent="1" source="7_Br2H_ahPFbPy7F2Dwa-186" target="7_Br2H_ahPFbPy7F2Dwa-257" edge="1">
          <mxGeometry relative="1" as="geometry">
            <mxPoint x="510" y="1590" as="sourcePoint" />
            <mxPoint x="510" y="1680" as="targetPoint" />
          </mxGeometry>
        </mxCell>
        <mxCell id="7_Br2H_ahPFbPy7F2Dwa-259" value="是" style="text;html=1;align=center;verticalAlign=middle;resizable=0;points=[];autosize=1;strokeColor=none;fillColor=none;fontSize=12;fontFamily=Helvetica;fontColor=default;" parent="1" vertex="1">
          <mxGeometry x="505" y="1650" width="30" height="20" as="geometry" />
        </mxCell>
        <mxCell id="7_Br2H_ahPFbPy7F2Dwa-264" style="edgeStyle=none;rounded=0;orthogonalLoop=1;jettySize=auto;html=1;entryX=1;entryY=0.75;entryDx=0;entryDy=0;fontFamily=Helvetica;fontSize=12;fontColor=default;" parent="1" source="7_Br2H_ahPFbPy7F2Dwa-261" target="7_Br2H_ahPFbPy7F2Dwa-191" edge="1">
          <mxGeometry relative="1" as="geometry">
            <Array as="points">
              <mxPoint x="680" y="1800" />
            </Array>
          </mxGeometry>
        </mxCell>
        <mxCell id="7_Br2H_ahPFbPy7F2Dwa-272" style="edgeStyle=none;rounded=0;orthogonalLoop=1;jettySize=auto;html=1;entryX=0;entryY=0.75;entryDx=0;entryDy=0;fontFamily=Helvetica;fontSize=12;fontColor=default;" parent="1" source="7_Br2H_ahPFbPy7F2Dwa-261" target="7_Br2H_ahPFbPy7F2Dwa-197" edge="1">
          <mxGeometry relative="1" as="geometry">
            <Array as="points">
              <mxPoint x="760" y="1630" />
              <mxPoint x="760" y="1693" />
            </Array>
          </mxGeometry>
        </mxCell>
        <mxCell id="7_Br2H_ahPFbPy7F2Dwa-261" value="进入管理员编辑界面（不可修改密码）" style="rounded=0;whiteSpace=wrap;html=1;" parent="1" vertex="1">
          <mxGeometry x="620" y="1600" width="120" height="60" as="geometry" />
        </mxCell>
        <mxCell id="7_Br2H_ahPFbPy7F2Dwa-263" value="否" style="text;html=1;align=center;verticalAlign=middle;resizable=0;points=[];autosize=1;strokeColor=none;fillColor=none;fontSize=12;fontFamily=Helvetica;fontColor=default;" parent="1" vertex="1">
          <mxGeometry x="575" y="1600" width="30" height="20" as="geometry" />
        </mxCell>
        <mxCell id="7_Br2H_ahPFbPy7F2Dwa-266" value="修改失败" style="text;html=1;align=center;verticalAlign=middle;resizable=0;points=[];autosize=1;strokeColor=none;fillColor=none;fontSize=12;fontFamily=Helvetica;fontColor=default;" parent="1" vertex="1">
          <mxGeometry x="384" y="1780" width="60" height="20" as="geometry" />
        </mxCell>
        <mxCell id="7_Br2H_ahPFbPy7F2Dwa-271" value="删除失败" style="text;html=1;align=center;verticalAlign=middle;resizable=0;points=[];autosize=1;strokeColor=none;fillColor=none;fontSize=12;fontFamily=Helvetica;fontColor=default;" parent="1" vertex="1">
          <mxGeometry x="750" y="1590" width="60" height="20" as="geometry" />
        </mxCell>
        <mxCell id="7_Br2H_ahPFbPy7F2Dwa-277" value="" style="edgeStyle=none;rounded=0;orthogonalLoop=1;jettySize=auto;html=1;fontFamily=Helvetica;fontSize=12;fontColor=default;" parent="1" source="7_Br2H_ahPFbPy7F2Dwa-274" target="7_Br2H_ahPFbPy7F2Dwa-276" edge="1">
          <mxGeometry relative="1" as="geometry" />
        </mxCell>
        <mxCell id="7_Br2H_ahPFbPy7F2Dwa-278" style="edgeStyle=none;rounded=0;orthogonalLoop=1;jettySize=auto;html=1;entryX=0;entryY=0.5;entryDx=0;entryDy=0;fontFamily=Helvetica;fontSize=12;fontColor=default;" parent="1" source="7_Br2H_ahPFbPy7F2Dwa-274" target="7_Br2H_ahPFbPy7F2Dwa-223" edge="1">
          <mxGeometry relative="1" as="geometry">
            <Array as="points">
              <mxPoint x="50" y="2190" />
              <mxPoint x="50" y="2090" />
            </Array>
          </mxGeometry>
        </mxCell>
        <mxCell id="7_Br2H_ahPFbPy7F2Dwa-274" value="判断输入的两次密码是否正确" style="rhombus;whiteSpace=wrap;html=1;rounded=0;" parent="1" vertex="1">
          <mxGeometry x="85" y="2150" width="220" height="80" as="geometry" />
        </mxCell>
        <mxCell id="7_Br2H_ahPFbPy7F2Dwa-281" style="edgeStyle=none;rounded=0;orthogonalLoop=1;jettySize=auto;html=1;entryX=1;entryY=0.5;entryDx=0;entryDy=0;fontFamily=Helvetica;fontSize=12;fontColor=default;" parent="1" source="7_Br2H_ahPFbPy7F2Dwa-276" target="7_Br2H_ahPFbPy7F2Dwa-223" edge="1">
          <mxGeometry relative="1" as="geometry">
            <Array as="points">
              <mxPoint x="370" y="2310" />
              <mxPoint x="370" y="2090" />
            </Array>
          </mxGeometry>
        </mxCell>
        <mxCell id="7_Br2H_ahPFbPy7F2Dwa-284" value="" style="edgeStyle=none;rounded=0;orthogonalLoop=1;jettySize=auto;html=1;fontFamily=Helvetica;fontSize=12;fontColor=default;" parent="1" source="7_Br2H_ahPFbPy7F2Dwa-276" target="7_Br2H_ahPFbPy7F2Dwa-283" edge="1">
          <mxGeometry relative="1" as="geometry" />
        </mxCell>
        <mxCell id="7_Br2H_ahPFbPy7F2Dwa-276" value="判断原密码是否正确" style="rhombus;whiteSpace=wrap;html=1;rounded=0;" parent="1" vertex="1">
          <mxGeometry x="85" y="2270" width="220" height="80" as="geometry" />
        </mxCell>
        <mxCell id="7_Br2H_ahPFbPy7F2Dwa-279" value="否" style="text;html=1;align=center;verticalAlign=middle;resizable=0;points=[];autosize=1;strokeColor=none;fillColor=none;fontSize=12;fontFamily=Helvetica;fontColor=default;" parent="1" vertex="1">
          <mxGeometry x="65" y="2130" width="30" height="20" as="geometry" />
        </mxCell>
        <mxCell id="7_Br2H_ahPFbPy7F2Dwa-280" value="是" style="text;html=1;align=center;verticalAlign=middle;resizable=0;points=[];autosize=1;strokeColor=none;fillColor=none;fontSize=12;fontFamily=Helvetica;fontColor=default;" parent="1" vertex="1">
          <mxGeometry x="205" y="2240" width="30" height="20" as="geometry" />
        </mxCell>
        <mxCell id="7_Br2H_ahPFbPy7F2Dwa-282" value="否" style="text;html=1;align=center;verticalAlign=middle;resizable=0;points=[];autosize=1;strokeColor=none;fillColor=none;fontSize=12;fontFamily=Helvetica;fontColor=default;" parent="1" vertex="1">
          <mxGeometry x="365" y="2210" width="30" height="20" as="geometry" />
        </mxCell>
        <mxCell id="7_Br2H_ahPFbPy7F2Dwa-283" value="跳转到欢迎界面" style="whiteSpace=wrap;html=1;rounded=0;" parent="1" vertex="1">
          <mxGeometry x="135" y="2410" width="120" height="60" as="geometry" />
        </mxCell>
        <mxCell id="7_Br2H_ahPFbPy7F2Dwa-285" value="是" style="text;html=1;align=center;verticalAlign=middle;resizable=0;points=[];autosize=1;strokeColor=none;fillColor=none;fontSize=12;fontFamily=Helvetica;fontColor=default;" parent="1" vertex="1">
          <mxGeometry x="205" y="2350" width="30" height="20" as="geometry" />
        </mxCell>
        <mxCell id="7_Br2H_ahPFbPy7F2Dwa-286" value="修改成功" style="text;html=1;align=center;verticalAlign=middle;resizable=0;points=[];autosize=1;strokeColor=none;fillColor=none;fontSize=12;fontFamily=Helvetica;fontColor=default;" parent="1" vertex="1">
          <mxGeometry x="166" y="2370" width="60" height="20" as="geometry" />
        </mxCell>
      </root>
    </mxGraphModel>
  </diagram>
  <diagram id="fhCCSu5vv7iSae9gdyqi" name="第 2 页">
    <mxGraphModel dx="1038" dy="547" grid="1" gridSize="10" guides="1" tooltips="1" connect="1" arrows="1" fold="1" page="1" pageScale="1" pageWidth="827" pageHeight="1169" math="0" shadow="0">
      <root>
        <mxCell id="0" />
        <mxCell id="1" parent="0" />
        <mxCell id="GbZborny3Zu1fO8edHBM-1" value="" style="rounded=0;html=1;jettySize=auto;orthogonalLoop=1;fontSize=11;endArrow=block;endFill=0;endSize=8;strokeWidth=1;shadow=0;labelBackgroundColor=none;edgeStyle=orthogonalEdgeStyle;" edge="1" parent="1" source="GbZborny3Zu1fO8edHBM-4" target="GbZborny3Zu1fO8edHBM-7">
          <mxGeometry relative="1" as="geometry" />
        </mxCell>
        <mxCell id="GbZborny3Zu1fO8edHBM-2" value="servelt验证账号密码与权限" style="edgeLabel;html=1;align=center;verticalAlign=middle;resizable=0;points=[];" vertex="1" connectable="0" parent="GbZborny3Zu1fO8edHBM-1">
          <mxGeometry x="-0.0229" y="9" relative="1" as="geometry">
            <mxPoint as="offset" />
          </mxGeometry>
        </mxCell>
        <mxCell id="GbZborny3Zu1fO8edHBM-3" style="edgeStyle=orthogonalEdgeStyle;rounded=0;orthogonalLoop=1;jettySize=auto;html=1;exitX=0.62;exitY=-0.075;exitDx=0;exitDy=0;entryX=1;entryY=0.5;entryDx=0;entryDy=0;exitPerimeter=0;" edge="1" parent="1" source="GbZborny3Zu1fO8edHBM-8" target="GbZborny3Zu1fO8edHBM-4">
          <mxGeometry relative="1" as="geometry">
            <Array as="points">
              <mxPoint x="708" y="260" />
            </Array>
          </mxGeometry>
        </mxCell>
        <mxCell id="GbZborny3Zu1fO8edHBM-4" value="登录" style="rounded=1;whiteSpace=wrap;html=1;fontSize=12;glass=0;strokeWidth=1;shadow=0;" vertex="1" parent="1">
          <mxGeometry x="450" y="240" width="120" height="40" as="geometry" />
        </mxCell>
        <mxCell id="GbZborny3Zu1fO8edHBM-5" value="Yes" style="rounded=0;html=1;jettySize=auto;orthogonalLoop=1;fontSize=11;endArrow=block;endFill=0;endSize=8;strokeWidth=1;shadow=0;labelBackgroundColor=none;edgeStyle=orthogonalEdgeStyle;" edge="1" parent="1" source="GbZborny3Zu1fO8edHBM-7">
          <mxGeometry y="20" relative="1" as="geometry">
            <mxPoint as="offset" />
            <mxPoint x="510" y="450" as="targetPoint" />
          </mxGeometry>
        </mxCell>
        <mxCell id="GbZborny3Zu1fO8edHBM-6" value="No" style="edgeStyle=orthogonalEdgeStyle;rounded=0;html=1;jettySize=auto;orthogonalLoop=1;fontSize=11;endArrow=block;endFill=0;endSize=8;strokeWidth=1;shadow=0;labelBackgroundColor=none;" edge="1" parent="1" source="GbZborny3Zu1fO8edHBM-7" target="GbZborny3Zu1fO8edHBM-8">
          <mxGeometry y="10" relative="1" as="geometry">
            <mxPoint as="offset" />
          </mxGeometry>
        </mxCell>
        <mxCell id="GbZborny3Zu1fO8edHBM-7" value="验证是否成功" style="rhombus;whiteSpace=wrap;html=1;shadow=0;fontFamily=Helvetica;fontSize=12;align=center;strokeWidth=1;spacing=6;spacingTop=-4;" vertex="1" parent="1">
          <mxGeometry x="460" y="350" width="100" height="80" as="geometry" />
        </mxCell>
        <mxCell id="GbZborny3Zu1fO8edHBM-8" value="返回登录页面" style="rounded=1;whiteSpace=wrap;html=1;fontSize=12;glass=0;strokeWidth=1;shadow=0;" vertex="1" parent="1">
          <mxGeometry x="634" y="370" width="120" height="40" as="geometry" />
        </mxCell>
        <mxCell id="GbZborny3Zu1fO8edHBM-9" value="进入欢迎界面" style="rounded=1;whiteSpace=wrap;html=1;fontSize=12;glass=0;strokeWidth=1;shadow=0;" vertex="1" parent="1">
          <mxGeometry x="450" y="460" width="120" height="40" as="geometry" />
        </mxCell>
        <mxCell id="GbZborny3Zu1fO8edHBM-10" value="" style="rounded=0;html=1;jettySize=auto;orthogonalLoop=1;fontSize=11;endArrow=block;endFill=0;endSize=8;strokeWidth=1;shadow=0;labelBackgroundColor=none;edgeStyle=orthogonalEdgeStyle;entryX=0.5;entryY=0;entryDx=0;entryDy=0;" edge="1" parent="1" source="GbZborny3Zu1fO8edHBM-11" target="GbZborny3Zu1fO8edHBM-17">
          <mxGeometry relative="1" as="geometry">
            <mxPoint x="460" y="735" as="targetPoint" />
          </mxGeometry>
        </mxCell>
        <mxCell id="GbZborny3Zu1fO8edHBM-11" value="点击账单管理系统" style="rounded=1;whiteSpace=wrap;html=1;fontSize=12;glass=0;strokeWidth=1;shadow=0;" vertex="1" parent="1">
          <mxGeometry x="400" y="600" width="120" height="40" as="geometry" />
        </mxCell>
        <mxCell id="GbZborny3Zu1fO8edHBM-12" style="edgeStyle=none;rounded=0;orthogonalLoop=1;jettySize=auto;html=1;exitX=0.5;exitY=1;exitDx=0;exitDy=0;" edge="1" parent="1" source="GbZborny3Zu1fO8edHBM-13" target="GbZborny3Zu1fO8edHBM-18">
          <mxGeometry relative="1" as="geometry" />
        </mxCell>
        <mxCell id="GbZborny3Zu1fO8edHBM-13" value="模糊查询商品名称与是否付款" style="rounded=1;whiteSpace=wrap;html=1;fontSize=12;glass=0;strokeWidth=1;shadow=0;" vertex="1" parent="1">
          <mxGeometry x="380" y="790" width="160" height="60" as="geometry" />
        </mxCell>
        <mxCell id="GbZborny3Zu1fO8edHBM-14" style="edgeStyle=none;rounded=0;orthogonalLoop=1;jettySize=auto;html=1;exitX=0.5;exitY=1;exitDx=0;exitDy=0;" edge="1" parent="1" source="GbZborny3Zu1fO8edHBM-17" target="GbZborny3Zu1fO8edHBM-13">
          <mxGeometry relative="1" as="geometry" />
        </mxCell>
        <mxCell id="GbZborny3Zu1fO8edHBM-15" value="" style="edgeStyle=none;rounded=0;orthogonalLoop=1;jettySize=auto;html=1;" edge="1" parent="1" source="GbZborny3Zu1fO8edHBM-17" target="GbZborny3Zu1fO8edHBM-20">
          <mxGeometry relative="1" as="geometry" />
        </mxCell>
        <mxCell id="GbZborny3Zu1fO8edHBM-16" value="" style="edgeStyle=none;rounded=0;orthogonalLoop=1;jettySize=auto;html=1;" edge="1" parent="1" source="GbZborny3Zu1fO8edHBM-17" target="GbZborny3Zu1fO8edHBM-40">
          <mxGeometry relative="1" as="geometry" />
        </mxCell>
        <mxCell id="GbZborny3Zu1fO8edHBM-17" value="显示账单列表" style="rounded=0;whiteSpace=wrap;html=1;" vertex="1" parent="1">
          <mxGeometry x="400" y="690" width="120" height="60" as="geometry" />
        </mxCell>
        <mxCell id="GbZborny3Zu1fO8edHBM-18" value="显示账单查询结果列表" style="rounded=0;whiteSpace=wrap;html=1;" vertex="1" parent="1">
          <mxGeometry x="395" y="890" width="130" height="60" as="geometry" />
        </mxCell>
        <mxCell id="GbZborny3Zu1fO8edHBM-19" value="" style="edgeStyle=none;rounded=0;orthogonalLoop=1;jettySize=auto;html=1;" edge="1" parent="1" source="GbZborny3Zu1fO8edHBM-20" target="GbZborny3Zu1fO8edHBM-23">
          <mxGeometry relative="1" as="geometry" />
        </mxCell>
        <mxCell id="GbZborny3Zu1fO8edHBM-20" value="点击账单编号" style="whiteSpace=wrap;html=1;rounded=0;" vertex="1" parent="1">
          <mxGeometry x="670" y="690" width="120" height="60" as="geometry" />
        </mxCell>
        <mxCell id="GbZborny3Zu1fO8edHBM-21" value="" style="edgeStyle=none;rounded=0;orthogonalLoop=1;jettySize=auto;html=1;" edge="1" parent="1" source="GbZborny3Zu1fO8edHBM-23" target="GbZborny3Zu1fO8edHBM-25">
          <mxGeometry relative="1" as="geometry" />
        </mxCell>
        <mxCell id="GbZborny3Zu1fO8edHBM-22" value="" style="edgeStyle=none;rounded=0;orthogonalLoop=1;jettySize=auto;html=1;" edge="1" parent="1" source="GbZborny3Zu1fO8edHBM-23" target="GbZborny3Zu1fO8edHBM-31">
          <mxGeometry relative="1" as="geometry" />
        </mxCell>
        <mxCell id="GbZborny3Zu1fO8edHBM-23" value="进入账单编辑界面" style="rounded=0;whiteSpace=wrap;html=1;" vertex="1" parent="1">
          <mxGeometry x="670" y="780" width="120" height="60" as="geometry" />
        </mxCell>
        <mxCell id="GbZborny3Zu1fO8edHBM-24" value="" style="edgeStyle=none;rounded=0;orthogonalLoop=1;jettySize=auto;html=1;" edge="1" parent="1" source="GbZborny3Zu1fO8edHBM-25" target="GbZborny3Zu1fO8edHBM-36">
          <mxGeometry relative="1" as="geometry" />
        </mxCell>
        <mxCell id="GbZborny3Zu1fO8edHBM-25" value="点击修改" style="whiteSpace=wrap;html=1;rounded=0;" vertex="1" parent="1">
          <mxGeometry x="670" y="870" width="120" height="40" as="geometry" />
        </mxCell>
        <mxCell id="GbZborny3Zu1fO8edHBM-26" style="edgeStyle=orthogonalEdgeStyle;rounded=0;orthogonalLoop=1;jettySize=auto;html=1;entryX=1;entryY=0;entryDx=0;entryDy=0;startArrow=none;" edge="1" parent="1" source="GbZborny3Zu1fO8edHBM-38" target="GbZborny3Zu1fO8edHBM-17">
          <mxGeometry relative="1" as="geometry">
            <mxPoint x="580" y="620" as="targetPoint" />
            <Array as="points">
              <mxPoint x="560" y="670" />
              <mxPoint x="560" y="690" />
            </Array>
          </mxGeometry>
        </mxCell>
        <mxCell id="GbZborny3Zu1fO8edHBM-27" value="修改成功" style="edgeLabel;html=1;align=center;verticalAlign=middle;resizable=0;points=[];" vertex="1" connectable="0" parent="GbZborny3Zu1fO8edHBM-26">
          <mxGeometry x="-0.5181" relative="1" as="geometry">
            <mxPoint as="offset" />
          </mxGeometry>
        </mxCell>
        <mxCell id="GbZborny3Zu1fO8edHBM-28" style="edgeStyle=orthogonalEdgeStyle;rounded=0;orthogonalLoop=1;jettySize=auto;html=1;entryX=0.81;entryY=0.023;entryDx=0;entryDy=0;exitX=0.187;exitY=0.59;exitDx=0;exitDy=0;exitPerimeter=0;entryPerimeter=0;" edge="1" parent="1" source="GbZborny3Zu1fO8edHBM-38">
          <mxGeometry relative="1" as="geometry">
            <mxPoint x="872.8" y="795" as="sourcePoint" />
            <mxPoint x="750" y="781.3800000000001" as="targetPoint" />
            <Array as="points">
              <mxPoint x="873" y="742" />
              <mxPoint x="873" y="740" />
              <mxPoint x="833" y="740" />
              <mxPoint x="833" y="760" />
              <mxPoint x="750" y="760" />
            </Array>
          </mxGeometry>
        </mxCell>
        <mxCell id="GbZborny3Zu1fO8edHBM-29" value="修改失败" style="edgeLabel;html=1;align=center;verticalAlign=middle;resizable=0;points=[];" vertex="1" connectable="0" parent="GbZborny3Zu1fO8edHBM-28">
          <mxGeometry x="0.225" y="3" relative="1" as="geometry">
            <mxPoint y="-3" as="offset" />
          </mxGeometry>
        </mxCell>
        <mxCell id="GbZborny3Zu1fO8edHBM-30" style="edgeStyle=none;rounded=0;orthogonalLoop=1;jettySize=auto;html=1;exitX=0.5;exitY=0;exitDx=0;exitDy=0;entryX=0.5;entryY=1;entryDx=0;entryDy=0;" edge="1" parent="1" source="GbZborny3Zu1fO8edHBM-31" target="GbZborny3Zu1fO8edHBM-38">
          <mxGeometry relative="1" as="geometry" />
        </mxCell>
        <mxCell id="GbZborny3Zu1fO8edHBM-31" value="点击删除" style="whiteSpace=wrap;html=1;rounded=0;" vertex="1" parent="1">
          <mxGeometry x="830" y="795" width="120" height="30" as="geometry" />
        </mxCell>
        <mxCell id="GbZborny3Zu1fO8edHBM-32" style="edgeStyle=orthogonalEdgeStyle;rounded=0;orthogonalLoop=1;jettySize=auto;html=1;entryX=1;entryY=0.75;entryDx=0;entryDy=0;" edge="1" parent="1" source="GbZborny3Zu1fO8edHBM-36" target="GbZborny3Zu1fO8edHBM-17">
          <mxGeometry relative="1" as="geometry" />
        </mxCell>
        <mxCell id="GbZborny3Zu1fO8edHBM-33" value="修改成功" style="edgeLabel;html=1;align=center;verticalAlign=middle;resizable=0;points=[];" vertex="1" connectable="0" parent="GbZborny3Zu1fO8edHBM-32">
          <mxGeometry x="0.0685" y="-4" relative="1" as="geometry">
            <mxPoint x="1" as="offset" />
          </mxGeometry>
        </mxCell>
        <mxCell id="GbZborny3Zu1fO8edHBM-34" style="edgeStyle=orthogonalEdgeStyle;rounded=0;orthogonalLoop=1;jettySize=auto;html=1;entryX=1;entryY=0.75;entryDx=0;entryDy=0;" edge="1" parent="1" source="GbZborny3Zu1fO8edHBM-36" target="GbZborny3Zu1fO8edHBM-23">
          <mxGeometry relative="1" as="geometry">
            <Array as="points">
              <mxPoint x="810" y="990" />
              <mxPoint x="810" y="825" />
            </Array>
          </mxGeometry>
        </mxCell>
        <mxCell id="GbZborny3Zu1fO8edHBM-35" value="修改失败" style="edgeLabel;html=1;align=center;verticalAlign=middle;resizable=0;points=[];" vertex="1" connectable="0" parent="GbZborny3Zu1fO8edHBM-34">
          <mxGeometry x="-0.308" y="-3" relative="1" as="geometry">
            <mxPoint as="offset" />
          </mxGeometry>
        </mxCell>
        <mxCell id="GbZborny3Zu1fO8edHBM-36" value="是否修改成功" style="rhombus;whiteSpace=wrap;html=1;rounded=0;" vertex="1" parent="1">
          <mxGeometry x="665" y="950" width="130" height="80" as="geometry" />
        </mxCell>
        <mxCell id="GbZborny3Zu1fO8edHBM-37" style="edgeStyle=orthogonalEdgeStyle;rounded=0;orthogonalLoop=1;jettySize=auto;html=1;exitX=0.5;exitY=1;exitDx=0;exitDy=0;" edge="1" parent="1" source="GbZborny3Zu1fO8edHBM-38" target="GbZborny3Zu1fO8edHBM-38">
          <mxGeometry relative="1" as="geometry" />
        </mxCell>
        <mxCell id="GbZborny3Zu1fO8edHBM-38" value="是否删除成功" style="rhombus;whiteSpace=wrap;html=1;" vertex="1" parent="1">
          <mxGeometry x="860" y="695" width="60" height="85" as="geometry" />
        </mxCell>
        <mxCell id="GbZborny3Zu1fO8edHBM-39" value="" style="edgeStyle=none;rounded=0;orthogonalLoop=1;jettySize=auto;html=1;" edge="1" parent="1" source="GbZborny3Zu1fO8edHBM-40" target="GbZborny3Zu1fO8edHBM-42">
          <mxGeometry relative="1" as="geometry" />
        </mxCell>
        <mxCell id="GbZborny3Zu1fO8edHBM-40" value="点击添加按钮" style="whiteSpace=wrap;html=1;rounded=0;" vertex="1" parent="1">
          <mxGeometry x="210" y="695" width="110" height="50" as="geometry" />
        </mxCell>
        <mxCell id="GbZborny3Zu1fO8edHBM-41" value="" style="edgeStyle=none;rounded=0;orthogonalLoop=1;jettySize=auto;html=1;entryX=0.5;entryY=0;entryDx=0;entryDy=0;" edge="1" parent="1" source="GbZborny3Zu1fO8edHBM-42" target="GbZborny3Zu1fO8edHBM-44">
          <mxGeometry relative="1" as="geometry">
            <Array as="points" />
          </mxGeometry>
        </mxCell>
        <mxCell id="GbZborny3Zu1fO8edHBM-42" value="进入账单添加界面" style="rounded=0;whiteSpace=wrap;html=1;" vertex="1" parent="1">
          <mxGeometry x="205" y="790" width="120" height="50" as="geometry" />
        </mxCell>
        <mxCell id="GbZborny3Zu1fO8edHBM-43" value="" style="edgeStyle=none;rounded=0;orthogonalLoop=1;jettySize=auto;html=1;" edge="1" parent="1" source="GbZborny3Zu1fO8edHBM-44" target="GbZborny3Zu1fO8edHBM-48">
          <mxGeometry relative="1" as="geometry" />
        </mxCell>
        <mxCell id="GbZborny3Zu1fO8edHBM-44" value="点击添加" style="whiteSpace=wrap;html=1;rounded=0;" vertex="1" parent="1">
          <mxGeometry x="205" y="860" width="120" height="40" as="geometry" />
        </mxCell>
        <mxCell id="GbZborny3Zu1fO8edHBM-45" style="edgeStyle=none;rounded=0;orthogonalLoop=1;jettySize=auto;html=1;entryX=0.033;entryY=0.87;entryDx=0;entryDy=0;entryPerimeter=0;exitX=0.954;exitY=0.497;exitDx=0;exitDy=0;exitPerimeter=0;" edge="1" parent="1" source="GbZborny3Zu1fO8edHBM-48" target="GbZborny3Zu1fO8edHBM-17">
          <mxGeometry relative="1" as="geometry">
            <mxPoint x="350" y="960" as="sourcePoint" />
            <Array as="points">
              <mxPoint x="360" y="960" />
              <mxPoint x="360" y="742" />
            </Array>
          </mxGeometry>
        </mxCell>
        <mxCell id="GbZborny3Zu1fO8edHBM-46" value="添加成功" style="edgeLabel;html=1;align=center;verticalAlign=middle;resizable=0;points=[];" vertex="1" connectable="0" parent="GbZborny3Zu1fO8edHBM-45">
          <mxGeometry x="-0.1234" y="3" relative="1" as="geometry">
            <mxPoint as="offset" />
          </mxGeometry>
        </mxCell>
        <mxCell id="GbZborny3Zu1fO8edHBM-47" style="edgeStyle=none;rounded=0;orthogonalLoop=1;jettySize=auto;html=1;exitX=0;exitY=0.5;exitDx=0;exitDy=0;entryX=0;entryY=0.5;entryDx=0;entryDy=0;" edge="1" parent="1" source="GbZborny3Zu1fO8edHBM-48" target="GbZborny3Zu1fO8edHBM-42">
          <mxGeometry relative="1" as="geometry">
            <mxPoint x="150" y="790" as="targetPoint" />
            <Array as="points">
              <mxPoint x="150" y="960" />
              <mxPoint x="150" y="815" />
            </Array>
          </mxGeometry>
        </mxCell>
        <mxCell id="GbZborny3Zu1fO8edHBM-48" value="是否添加成功" style="rhombus;whiteSpace=wrap;html=1;rounded=0;" vertex="1" parent="1">
          <mxGeometry x="200" y="930" width="130" height="60" as="geometry" />
        </mxCell>
        <mxCell id="GbZborny3Zu1fO8edHBM-49" value="添加失败" style="text;html=1;align=center;verticalAlign=middle;resizable=0;points=[];autosize=1;strokeColor=none;fillColor=none;" vertex="1" parent="1">
          <mxGeometry x="130" y="880" width="60" height="20" as="geometry" />
        </mxCell>
      </root>
    </mxGraphModel>
  </diagram>
</mxfile>
